<?xml version="1.0" standalone="no"?>
<!DOCTYPE svg PUBLIC "-//W3C//DTD SVG 20010904//EN"
 "http://www.w3.org/TR/2001/REC-SVG-20010904/DTD/svg10.dtd">
<svg version="1.0" xmlns="http://www.w3.org/2000/svg"
 width="512.000000pt" height="512.000000pt" viewBox="0 0 512.000000 512.000000"
 preserveAspectRatio="xMidYMid meet">
<metadata>
Created by potrace 1.14, written by Peter Selinger 2001-2017
</metadata>
<g transform="translate(0.000000,512.000000) scale(0.100000,-0.100000)"
fill="#000000" stroke="none">
<path d="M635 4547 c-101 -30 -182 -104 -214 -197 -10 -29 -59 -298 -76 -415
-5 -37 -93 -562 -99 -591 -2 -12 -7 -39 -10 -60 -10 -65 -18 -118 -22 -139 -7
-36 -23 -129 -27 -160 -3 -16 -44 -264 -93 -550 -98 -585 -103 -637 -62 -727
15 -31 43 -73 63 -93 38 -38 119 -81 170 -89 17 -2 486 -5 1043 -5 l1012 -1 0
-320 0 -320 -215 0 c-216 0 -216 0 -240 -25 -24 -23 -25 -31 -25 -135 0 -104
1 -112 25 -135 l24 -25 668 0 c509 1 672 4 684 13 30 23 39 56 39 144 0 165 3
163 -275 163 l-205 0 0 320 0 320 1018 1 c559 0 1028 2 1042 5 37 7 108 42
147 72 99 79 128 197 93 392 -5 30 -12 69 -14 85 -3 17 -8 41 -11 55 -9 48
-15 85 -21 135 -3 28 -9 66 -14 85 -5 19 -11 53 -15 75 -3 22 -17 110 -31 195
-14 85 -27 168 -30 184 -2 15 -6 35 -8 45 -3 9 -8 39 -11 66 -4 28 -8 57 -10
65 -2 8 -6 29 -9 45 -2 17 -8 50 -12 75 -4 25 -8 50 -9 55 -1 14 -17 105 -21
130 -3 11 -7 36 -10 55 -13 87 -25 156 -30 185 -7 38 -36 210 -39 230 -1 11
-10 61 -18 110 -9 50 -18 106 -21 125 -3 19 -8 46 -10 60 -3 14 -7 41 -10 60
-3 19 -10 58 -15 85 -5 28 -12 69 -16 92 -15 102 -83 194 -181 243 l-49 25
-1905 2 c-1418 1 -1915 -2 -1945 -10z"/>
</g>
</svg>
